<svg xmlns="http://www.w3.org/2000/svg" width="360" height="782" viewBox="0 0 360 782" font-family="Pretendard, -apple-system, sans-serif">
  <rect width="360" height="782" fill="#ffffff"/>
  <!-- status bar -->
  <text x="26" y="34" font-size="14" font-weight="700" fill="#1a2536">9:41</text>
  <g fill="#1a2536"><rect x="300" y="24" width="3" height="8" rx="1"/><rect x="305" y="21" width="3" height="11" rx="1"/><rect x="310" y="18" width="3" height="14" rx="1"/><rect x="315" y="15" width="3" height="17" rx="1"/><rect x="326" y="18" width="22" height="12" rx="3" fill="none" stroke="#1a2536" stroke-opacity=".4"/><rect x="328" y="20" width="16" height="8" rx="2"/></g>
  <!-- header -->
  <text x="24" y="86" font-size="26" font-weight="800" fill="#1a2536">도담</text>
  <circle cx="330" cy="78" r="18" fill="#eef3ff"/><circle cx="330" cy="72" r="6" fill="#3182f6"/><path d="M320 90c0-6 5-9 10-9s10 3 10 9" fill="#3182f6"/>
  <!-- search -->
  <rect x="24" y="106" width="312" height="52" rx="14" fill="#f2f5fa"/>
  <circle cx="52" cy="132" r="7" fill="none" stroke="#9aa7bd" stroke-width="2"/><line x1="58" y1="138" x2="63" y2="143" stroke="#9aa7bd" stroke-width="2" stroke-linecap="round"/>
  <text x="76" y="137" font-size="15" fill="#9aa7bd">지역·서비스로 검색</text>
  <!-- categories -->
  <text x="24" y="196" font-size="17" font-weight="800" fill="#1a2536">서비스 카테고리</text>
  <g>
    <rect x="24" y="212" width="72" height="84" rx="16" fill="#eef3ff"/><circle cx="60" cy="246" r="16" fill="#3182f6" fill-opacity=".15"/><path d="M53 246h14M60 239v14" stroke="#3182f6" stroke-width="2.5" stroke-linecap="round"/><text x="60" y="284" font-size="12" font-weight="600" fill="#45506a" text-anchor="middle">언어치료</text>
    <rect x="104" y="212" width="72" height="84" rx="16" fill="#fff4ec"/><circle cx="140" cy="246" r="16" fill="#ff8a3d" fill-opacity=".18"/><rect x="133" y="239" width="14" height="14" rx="3" fill="#ff8a3d"/><text x="140" y="284" font-size="12" font-weight="600" fill="#45506a" text-anchor="middle">놀이치료</text>
    <rect x="184" y="212" width="72" height="84" rx="16" fill="#eafaf1"/><circle cx="220" cy="246" r="16" fill="#1bbf74" fill-opacity=".18"/><path d="M213 248c3 4 11 4 14 0" stroke="#1bbf74" stroke-width="2.5" fill="none" stroke-linecap="round"/><text x="220" y="284" font-size="12" font-weight="600" fill="#45506a" text-anchor="middle">감각통합</text>
    <rect x="264" y="212" width="72" height="84" rx="16" fill="#f3eeff"/><circle cx="300" cy="246" r="16" fill="#7c5cff" fill-opacity=".18"/><rect x="293" y="239" width="14" height="14" rx="3" fill="none" stroke="#7c5cff" stroke-width="2.5"/><text x="300" y="284" font-size="12" font-weight="600" fill="#45506a" text-anchor="middle">발달검사</text>
  </g>
  <!-- recommended -->
  <text x="24" y="340" font-size="17" font-weight="800" fill="#1a2536">검증된 추천 제공자</text>
  <text x="336" y="340" font-size="13" font-weight="600" fill="#3182f6" text-anchor="end">전체 ›</text>
  <g>
    <rect x="24" y="356" width="312" height="96" rx="18" fill="#ffffff" stroke="#e8edf5" stroke-width="1.5"/>
    <circle cx="66" cy="404" r="26" fill="#eef3ff"/><text x="66" y="410" font-size="18" text-anchor="middle">🌿</text>
    <text x="106" y="394" font-size="16" font-weight="800" fill="#1a2536">햇살아이 발달센터</text>
    <rect x="258" y="381" width="42" height="20" rx="10" fill="#e7f6ee"/><text x="279" y="395" font-size="11" font-weight="700" fill="#1bbf74" text-anchor="middle">검증</text>
    <text x="106" y="416" font-size="13" fill="#7a869c">서울 강서구 · 언어치료, 놀이치료</text>
    <text x="106" y="438" font-size="13" font-weight="700" fill="#ff9f1c">★ 4.8</text><text x="146" y="438" font-size="12" fill="#9aa7bd">(37)</text>

    <rect x="24" y="464" width="312" height="96" rx="18" fill="#ffffff" stroke="#e8edf5" stroke-width="1.5"/>
    <circle cx="66" cy="512" r="26" fill="#fdf0ff"/><text x="66" y="518" font-size="18" text-anchor="middle">🌸</text>
    <text x="106" y="502" font-size="16" font-weight="800" fill="#1a2536">맑은마음 아동센터</text>
    <rect x="258" y="489" width="42" height="20" rx="10" fill="#e7f6ee"/><text x="279" y="503" font-size="11" font-weight="700" fill="#1bbf74" text-anchor="middle">검증</text>
    <text x="106" y="524" font-size="13" fill="#7a869c">서울 양천구 · 감각통합, 발달검사</text>
    <text x="106" y="546" font-size="13" font-weight="700" fill="#ff9f1c">★ 4.9</text><text x="146" y="546" font-size="12" fill="#9aa7bd">(52)</text>
  </g>
  <!-- tab bar -->
  <rect x="0" y="710" width="360" height="72" fill="#ffffff"/>
  <line x1="0" y1="710" x2="360" y2="710" stroke="#eef1f6" stroke-width="1.5"/>
  <g text-anchor="middle">
    <rect x="30" y="726" width="22" height="18" rx="3" fill="none" stroke="#3182f6" stroke-width="2"/><text x="41" y="764" font-size="11" font-weight="700" fill="#3182f6">홈</text>
    <circle cx="131" cy="733" r="8" fill="none" stroke="#9aa7bd" stroke-width="2"/><text x="131" y="764" font-size="11" fill="#9aa7bd">검색</text>
    <rect x="212" y="725" width="18" height="18" rx="3" fill="none" stroke="#9aa7bd" stroke-width="2"/><text x="221" y="764" font-size="11" fill="#9aa7bd">예약</text>
    <circle cx="311" cy="731" r="6" fill="none" stroke="#9aa7bd" stroke-width="2"/><path d="M303 744c0-5 4-7 8-7s8 2 8 7" fill="none" stroke="#9aa7bd" stroke-width="2"/><text x="311" y="764" font-size="11" fill="#9aa7bd">마이</text>
  </g>
  <rect x="120" y="768" width="120" height="5" rx="2.5" fill="#1a2536"/>
</svg>
